<?xml version="1.0" encoding="UTF-8" standalone="no"?>
<svg
   xmlns:dc="http://purl.org/dc/elements/1.1/"
   xmlns:cc="http://creativecommons.org/ns#"
   xmlns:rdf="http://www.w3.org/1999/02/22-rdf-syntax-ns#"
   xmlns:svg="http://www.w3.org/2000/svg"
   xmlns="http://www.w3.org/2000/svg"
   xmlns:sodipodi="http://sodipodi.sourceforge.net/DTD/sodipodi-0.dtd"
   xmlns:inkscape="http://www.inkscape.org/namespaces/inkscape"
   inkscape:version="1.0 (4035a4fb49, 2020-05-01)"
   sodipodi:docname="tree.svg"
   id="SVGRoot"
   version="1.1"
   viewBox="0 0 998 780"
   height="780"
   width="998">
  <defs
     id="defs10">
    <marker
       inkscape:isstock="true"
       style="overflow:visible"
       id="TriangleOutM"
       refX="0"
       refY="0"
       orient="auto"
       inkscape:stockid="TriangleOutM">
      <path
         transform="scale(0.4)"
         style="fill:#000000;fill-opacity:1;fill-rule:evenodd;stroke:#000000;stroke-width:1pt;stroke-opacity:1"
         d="M 5.77,0 -2.88,5 V -5 Z"
         id="path1180" />
    </marker>
    <marker
       inkscape:isstock="true"
       style="overflow:visible"
       id="Arrow2Lend"
       refX="0"
       refY="0"
       orient="auto"
       inkscape:stockid="Arrow2Lend">
      <path
         transform="matrix(-1.1,0,0,-1.1,-1.1,0)"
         d="M 8.7185878,4.0337352 -2.2072895,0.01601326 8.7185884,-4.0017078 c -1.7454984,2.3720609 -1.7354408,5.6174519 -6e-7,8.035443 z"
         style="fill:#000000;fill-opacity:1;fill-rule:evenodd;stroke:#000000;stroke-width:0.625;stroke-linejoin:round;stroke-opacity:1"
         id="path1056" />
    </marker>
    <marker
       inkscape:isstock="true"
       style="overflow:visible"
       id="Arrow1Send"
       refX="0"
       refY="0"
       orient="auto"
       inkscape:stockid="Arrow1Send">
      <path
         transform="matrix(-0.2,0,0,-0.2,-1.2,0)"
         style="fill:#000000;fill-opacity:1;fill-rule:evenodd;stroke:#000000;stroke-width:1pt;stroke-opacity:1"
         d="M 0,0 5,-5 -12.5,0 5,5 Z"
         id="path1050" />
    </marker>
  </defs>
  <sodipodi:namedview
     inkscape:snap-global="false"
     showguides="false"
     inkscape:window-maximized="1"
     inkscape:window-y="-8"
     inkscape:window-x="-8"
     inkscape:window-height="705"
     inkscape:window-width="1366"
     showgrid="false"
     inkscape:document-rotation="0"
     inkscape:current-layer="layer1"
     inkscape:document-units="px"
     inkscape:cy="204.84174"
     inkscape:cx="255.59226"
     inkscape:zoom="0.3535534"
     inkscape:pageshadow="2"
     inkscape:pageopacity="0.0"
     borderopacity="1.0"
     bordercolor="#666666"
     pagecolor="#ffffff"
     id="base" />
  <metadata
     id="metadata13">
    <rdf:RDF>
      <cc:Work
         rdf:about="">
        <dc:format>image/svg+xml</dc:format>
        <dc:type
           rdf:resource="http://purl.org/dc/dcmitype/StillImage" />
        <dc:title></dc:title>
      </cc:Work>
    </rdf:RDF>
  </metadata>
  <g
     id="layer1"
     inkscape:groupmode="layer"
     inkscape:label="Livello 1">
    <path
       sodipodi:nodetypes="csccccsc"
       d="m 558.10543,206.15377 c 13.70635,13.35936 35.44855,14.74834 50.82668,3.24702 12.24034,-9.15456 17.43096,-24.21876 14.15219,-38.23598 m -9.58341,-17.489 c -1.7159,-1.77203 -3.58927,-3.36019 -5.58727,-4.75362 m -19.27571,-6.9105 c -5.97243,-0.49041 -12.13314,0.36942 -18.00132,2.73856 -17.90822,7.23003 -27.54517,26.27712 -22.5283,44.52634"
       style="fill:none;stroke:#000000;stroke-width:1.75607;stroke-linecap:round;stroke-linejoin:round;stroke-miterlimit:4;stroke-dasharray:none"
       id="path27" />
    <path
       sodipodi:nodetypes="cccc"
       d="m 558.2521,206.40138 -42.24524,23.77282 m -10.1438,-17.12479 42.24523,-23.77282"
       style="fill:none;stroke:#000000;stroke-width:1.63305;stroke-linecap:round;stroke-miterlimit:4;stroke-dasharray:none;stroke-dashoffset:0"
       id="rect29" />
    <path
       sodipodi:nodetypes="cssccccc"
       d="m 548.09809,290.05399 c -5.01688,18.24922 4.62008,37.29632 22.5283,44.52635 17.90822,7.23003 38.54073,0.40355 48.23259,-15.95826 1.38251,-2.33396 2.48132,-4.75883 3.30459,-7.23455 m 0.99443,-19.56154 c -0.46684,-2.10089 -1.11762,-4.16356 -1.94731,-6.16341 M 608.92191,269.9298 c -15.37813,-11.50132 -37.12032,-10.11234 -50.82668,3.24701"
       style="fill:none;stroke:#000000;stroke-width:1.75607;stroke-linecap:round;stroke-linejoin:round;stroke-miterlimit:4;stroke-dasharray:none"
       id="path27-6" />
    <path
       sodipodi:nodetypes="cccc"
       d="m 547.95142,290.3016 -42.24523,-23.77281 m 10.1438,-17.12479 42.24524,23.77281"
       style="fill:none;stroke:#000000;stroke-width:1.63305;stroke-linecap:round;stroke-miterlimit:4;stroke-dasharray:none;stroke-dashoffset:0"
       id="rect29-8" />
    <path
       sodipodi:nodetypes="ccsccccscccsccccccscsccccccsccccccccsccccccccscsccccccccccsccccscccccccc"
       d="m 515.844,249.4136 c 0.12008,-0.43379 0.23219,-0.86966 0.33626,-1.30736 0.0762,-0.32259 0.14805,-0.64614 0.2155,-0.97058 0.034,-0.16275 0.0668,-0.32572 0.0985,-0.4889 0.0315,-0.16277 0.0618,-0.32575 0.091,-0.48891 0.0289,-0.16279 0.0568,-0.32576 0.0836,-0.4889 0.0271,-0.16341 0.0532,-0.32698 0.078,-0.49072 0.0253,-0.16402 0.0495,-0.3282 0.0725,-0.49253 0.0227,-0.16222 0.0444,-0.32459 0.0651,-0.48709 v -0.006 -0.006 c 0.0203,-0.16285 0.0395,-0.32581 0.0575,-0.4889 0.0178,-0.16105 0.0345,-0.32222 0.0501,-0.48348 l 0.002,-0.0108 0.002,-0.0108 c 0.0125,-0.13273 0.0243,-0.26553 0.0353,-0.39837 0.003,-0.0284 0.005,-0.0567 0.008,-0.0851 0.006,-0.07 0.0113,-0.14001 0.0167,-0.21005 0.008,-0.0947 0.014,-0.1895 0.0204,-0.28429 l 0.002,-0.0289 c 0.0109,-0.15567 0.0208,-0.3114 0.0297,-0.46718 0.01,-0.16533 0.0172,-0.33071 0.0242,-0.49615 0.006,-0.13095 0.0107,-0.26193 0.0148,-0.39293 9.5e-4,-0.0344 0.003,-0.0688 0.004,-0.10322 l 0.006,-0.21185 0.006,-0.28611 v -0.0199 c 0.005,-0.32411 0.006,-0.64826 0.002,-0.97238 -0.002,-0.16299 -0.005,-0.32596 -0.01,-0.4889 v -0.009 l -0.006,-0.21004 c -9.6e-4,-0.0326 -0.003,-0.0652 -0.004,-0.0978 -0.004,-0.12315 -0.008,-0.24629 -0.013,-0.3694 l -0.002,-0.0308 c -0.004,-0.0948 -0.009,-0.18954 -0.013,-0.28429 l -0.004,-0.0743 c -0.007,-0.11229 -0.0131,-0.22457 -0.0204,-0.3368 l -0.006,-0.0851 c -0.005,-0.07 -0.01,-0.14004 -0.0148,-0.21005 v -0.0108 c -0.0119,-0.16184 -0.0249,-0.3236 -0.039,-0.48528 -0.0116,-0.13889 -0.024,-0.27772 -0.0372,-0.41648 -0.003,-0.026 -0.005,-0.0519 -0.008,-0.0779 -0.01,-0.0948 -0.0194,-0.18956 -0.0297,-0.28428 l -0.004,-0.0253 c -0.013,-0.1232 -0.0266,-0.24633 -0.0409,-0.36939 -0.004,-0.0332 -0.008,-0.0664 -0.0111,-0.0996 -0.009,-0.0701 -0.0171,-0.14006 -0.0261,-0.21006 -0.012,-0.0942 -0.0245,-0.18836 -0.0372,-0.28247 l -0.002,-0.0181 c -0.0167,-0.12381 -0.0341,-0.24756 -0.052,-0.3712 -0.005,-0.0344 -0.01,-0.0688 -0.0148,-0.10321 -0.0104,-0.0694 -0.0208,-0.13885 -0.0316,-0.20824 -0.006,-0.0326 -0.0111,-0.0652 -0.0167,-0.0978 -0.0204,-0.13109 -0.0414,-0.26207 -0.0632,-0.39294 -0.0274,-0.16375 -0.0557,-0.32733 -0.0854,-0.49072 -0.0269,-0.15166 -0.0548,-0.30316 -0.0836,-0.45449 l -0.008,-0.0344 c -0.0182,-0.093 -0.0368,-0.18597 -0.0557,-0.27886 -0.0141,-0.0694 -0.0282,-0.13886 -0.0427,-0.20823 -0.008,-0.0375 -0.0161,-0.0749 -0.0242,-0.11228 -0.0248,-0.11661 -0.0502,-0.2331 -0.0762,-0.34947 l -0.006,-0.0236 c -0.0207,-0.093 -0.0418,-0.18598 -0.0632,-0.27886 -0.0159,-0.0689 -0.032,-0.13766 -0.0483,-0.20643 -0.01,-0.038 -0.0186,-0.076 -0.0279,-0.11407 -0.0262,-0.10876 -0.0528,-0.21742 -0.0799,-0.32594 l -0.0111,-0.0435 c -0.0232,-0.0924 -0.0467,-0.18479 -0.0706,-0.27705 -0.0178,-0.0682 -0.0357,-0.13646 -0.0538,-0.20462 -0.01,-0.0338 -0.0186,-0.0676 -0.0279,-0.1014 -0.016,-0.0591 -0.0321,-0.11834 -0.0483,-0.17745"
       style="fill:none;stroke:#000000;stroke-width:1.63305;stroke-miterlimit:4;stroke-dasharray:none;stroke-dashoffset:0"
       id="path911" />
    <path
       sodipodi:nodetypes="ccccccccccccccccccccccscccccccccccccscccccccscccsssccccscc"
       d="m 505.86392,213.04989 c -3.58893,-3.50101 -7.85087,-6.27796 -12.54197,-8.17198 -4.74316,-1.91533 -9.83048,-2.8898 -14.96454,-2.86643 -13.73425,0.0638 -26.40071,7.23124 -33.26753,18.82468 -1.88233,3.17728 -3.27805,6.60568 -4.14289,10.17648 -0.31256,1.28978 -0.55503,2.59474 -0.72639,3.90943 -0.0383,0.29716 -0.073,0.59474 -0.10403,0.89271 -0.006,0.0513 -0.0112,0.1026 -0.0168,0.15392 l -0.008,0.0525 c -0.0125,0.12791 -0.0242,0.25586 -0.0353,0.38388 -0.0147,0.16469 -0.0283,0.32947 -0.0409,0.49434 -0.0123,0.16532 -0.0234,0.3307 -0.0335,0.49615 -0.009,0.13757 -0.0156,0.27519 -0.0223,0.41285 -0.003,0.0368 -0.005,0.0736 -0.008,0.11046 -0.005,0.11285 -0.01,0.22572 -0.013,0.33861 -0.003,0.0652 -0.005,0.13037 -0.008,0.19557 -9.5e-4,0.0464 -0.003,0.093 -0.004,0.13943 -0.004,0.1225 -0.007,0.24503 -0.01,0.36758 l -0.002,0.038 c -0.002,0.12735 -0.003,0.2547 -0.004,0.38207 -9.5e-4,0.102 -0.002,0.204 -0.002,0.30601 2e-4,0.10141 7.7e-4,0.20281 0.002,0.30421 9.5e-4,0.1328 0.003,0.26559 0.006,0.39837 0.003,0.13402 0.007,0.26801 0.0111,0.40199 9.5e-4,0.0399 0.003,0.0796 0.004,0.11951 0.002,0.0712 0.005,0.14245 0.008,0.21367 0.004,0.10263 0.009,0.20524 0.013,0.30783 l 0.002,0.0489 c 0.007,0.128 0.0142,0.25596 0.0223,0.38388 0.0101,0.16485 0.0212,0.32963 0.0335,0.49434 0.008,0.10385 0.0157,0.20767 0.0242,0.31145 0.009,0.099 0.0168,0.19801 0.026,0.29697 0.0122,0.14071 0.0252,0.28135 0.039,0.4219 0.013,0.12078 0.0266,0.2415 0.0409,0.36216 0.005,0.0452 0.01,0.0906 0.0148,0.1358 0.009,0.0712 0.0172,0.14247 0.0261,0.21367 0.0126,0.10448 0.0256,0.2089 0.039,0.31326 0.006,0.0453 0.0123,0.0906 0.0186,0.13581 0.0121,0.093 0.0245,0.18596 0.0372,0.27886 0.006,0.0375 0.0111,0.0748 0.0167,0.11226 0.0237,0.16373 0.0484,0.32731 0.0743,0.49072 0.0216,0.13412 0.0439,0.26811 0.0669,0.40199 0.0109,0.0646 0.0223,0.1292 0.0335,0.19376 0.0228,0.12868 0.0464,0.25724 0.0706,0.38568 0.0606,0.32556 0.12566,0.65032 0.19507,0.97419 0.0348,0.16201 0.0708,0.32376 0.10775,0.48529 0.0373,0.1614 0.0757,0.32257 0.11518,0.48348 0.0392,0.16141 0.0794,0.32257 0.12075,0.48347 0.0417,0.16082 0.0844,0.32138 0.1282,0.48166 0.009,0.0322 0.019,0.0639 0.0279,0.096 v 0 c 0.0344,0.125 0.0682,0.25019 0.10403,0.37483 l 0.008,0.0289 m 9.98453,16.34731 c 0.0868,0.0852 0.17394,0.16976 0.26121,0.25376 v 0 c 10.81704,10.33972 27.12883,13.90899 41.72793,8.01444 4.69045,-1.89423 8.95173,-4.67117 12.54012,-8.17198"
       style="fill:none;stroke:#000000;stroke-width:1.63305;stroke-linecap:butt;stroke-miterlimit:4;stroke-dasharray:none;stroke-dashoffset:0"
       id="path1039" />
    <path
       sodipodi:nodetypes="cccccccscccccccccsccccccscccccccccscsccccscccccscccccccccccccccsccccccccccccccccccccccscc"
       d="m 324.36858,356.69611 c 0.12007,-0.43379 0.23218,-0.86965 0.33625,-1.30736 0.0762,-0.32259 0.14805,-0.64614 0.2155,-0.97057 0.034,-0.16276 0.0668,-0.32573 0.0985,-0.48891 0.0315,-0.16277 0.0618,-0.32575 0.091,-0.48891 0.0289,-0.16279 0.0568,-0.32576 0.0836,-0.4889 0.0271,-0.1634 0.0532,-0.32698 0.078,-0.49072 0.0253,-0.16401 0.0495,-0.3282 0.0725,-0.49253 0.0227,-0.16222 0.0444,-0.32459 0.0651,-0.48709 v -0.006 -0.006 c 0.0203,-0.16284 0.0395,-0.32581 0.0576,-0.4889 0.0178,-0.16105 0.0345,-0.32222 0.0501,-0.48348 l 0.002,-0.0108 0.002,-0.0109 c 0.0125,-0.13273 0.0242,-0.26553 0.0353,-0.39837 0.003,-0.0284 0.005,-0.0567 0.008,-0.0851 0.006,-0.07 0.0113,-0.14001 0.0167,-0.21005 0.008,-0.0947 0.014,-0.1895 0.0204,-0.28428 l 0.002,-0.0289 c 0.0109,-0.15566 0.0208,-0.3114 0.0297,-0.46718 0.01,-0.16533 0.0172,-0.33071 0.0242,-0.49614 0.006,-0.13096 0.0106,-0.26194 0.0148,-0.39294 9.5e-4,-0.0344 0.003,-0.0688 0.004,-0.10322 l 0.006,-0.21185 0.006,-0.28611 v -0.0199 c 0.005,-0.32411 0.006,-0.64826 0.002,-0.97238 -0.002,-0.16299 -0.005,-0.32595 -0.01,-0.4889 v -0.009 l -0.006,-0.21005 c -9.5e-4,-0.0326 -0.003,-0.0652 -0.004,-0.0978 -0.004,-0.12315 -0.008,-0.24629 -0.013,-0.3694 l -0.002,-0.0308 c -0.004,-0.0948 -0.009,-0.18954 -0.013,-0.28429 l -0.004,-0.0743 c -0.007,-0.11229 -0.0131,-0.22456 -0.0205,-0.3368 l -0.006,-0.0851 c -0.005,-0.07 -0.01,-0.14004 -0.0148,-0.21005 v -0.0108 c -0.0119,-0.16185 -0.0249,-0.32361 -0.039,-0.48529 -0.0116,-0.13889 -0.024,-0.27771 -0.0372,-0.41648 -0.003,-0.026 -0.005,-0.0519 -0.008,-0.0779 -0.01,-0.0948 -0.0194,-0.18957 -0.0297,-0.28429 l -0.004,-0.0254 c -0.013,-0.1232 -0.0266,-0.24633 -0.0409,-0.36939 -0.004,-0.0332 -0.008,-0.0664 -0.0111,-0.0996 -0.009,-0.0701 -0.0171,-0.14006 -0.0261,-0.21006 -0.012,-0.0942 -0.0244,-0.18836 -0.0372,-0.28247 l -0.002,-0.0181 c -0.0167,-0.12381 -0.034,-0.24756 -0.052,-0.3712 -0.005,-0.0344 -0.01,-0.0688 -0.0148,-0.10321 -0.0104,-0.0694 -0.0208,-0.13885 -0.0316,-0.20824 -0.006,-0.0326 -0.0111,-0.0652 -0.0167,-0.0978 -0.0204,-0.13109 -0.0414,-0.26207 -0.0632,-0.39294 -0.0274,-0.16375 -0.0558,-0.32733 -0.0855,-0.49072 -0.0269,-0.15166 -0.0548,-0.30316 -0.0836,-0.45449 l -0.008,-0.0344 c -0.0182,-0.093 -0.0368,-0.18597 -0.0557,-0.27886 -0.0141,-0.0694 -0.0282,-0.13886 -0.0427,-0.20824 -0.008,-0.0375 -0.0161,-0.0749 -0.0242,-0.11227 -0.0248,-0.11661 -0.0502,-0.2331 -0.0762,-0.34947 l -0.006,-0.0236 c -0.0207,-0.093 -0.0418,-0.18598 -0.0632,-0.27886 -0.0159,-0.0689 -0.032,-0.13766 -0.0483,-0.20643 -0.01,-0.038 -0.0185,-0.076 -0.0279,-0.11407 -0.0262,-0.10876 -0.0528,-0.21742 -0.0799,-0.32594 l -0.0111,-0.0435 c -0.0232,-0.0924 -0.0467,-0.18479 -0.0706,-0.27705 -0.0178,-0.0682 -0.0357,-0.13646 -0.0538,-0.20462 -0.01,-0.0338 -0.0186,-0.0676 -0.0279,-0.1014 -0.016,-0.0591 -0.032,-0.11834 -0.0483,-0.17745 m -9.98379,-16.85638 c -3.58894,-3.50101 -7.85087,-6.27796 -12.54197,-8.17198 -4.74316,-1.91533 -9.83049,-2.8898 -14.96454,-2.86643 -13.73425,0.0638 -26.40072,7.23124 -33.26753,18.82467 -1.68618,2.8462 -2.98188,5.89389 -3.85528,9.06495 m -0.0263,19.42007 c 0.0429,0.15721 0.0868,0.31415 0.1319,0.4708 l 0.008,0.0289 c 0.0442,0.15238 0.0894,0.30449 0.13562,0.45631 0.0479,0.15906 0.0968,0.31781 0.14676,0.47623 0.15019,0.47444 0.30999,0.94594 0.47932,1.41422 0.0565,0.15608 0.11413,0.31181 0.17277,0.46717 0.0584,0.1555 0.11785,0.31062 0.17835,0.46536 0.18198,0.46418 0.37336,0.92481 0.57405,1.38162 0.6025,1.37056 1.28799,2.70503 2.05287,3.99635 9.69195,16.36247 30.32535,23.18905 48.23393,15.95825 4.69044,-1.89423 8.95173,-4.67117 12.54012,-8.17198"
       style="fill:none;stroke:#000000;stroke-width:1.63305;stroke-miterlimit:4;stroke-dasharray:none;stroke-dashoffset:0"
       id="path911-3" />
    <path
       sodipodi:nodetypes="cccc"
       d="M 366.88774,314.08757 324.6425,337.86039 M 314.49869,320.7356 356.74392,296.96278"
       style="fill:none;stroke:#000000;stroke-width:1.63305;stroke-linecap:round;stroke-miterlimit:4;stroke-dasharray:none;stroke-dashoffset:0"
       id="rect29-7" />
    <path
       sodipodi:nodetypes="cccc"
       d="m 356.63055,397.31929 -42.24523,-23.77282 m 10.14381,-17.12479 42.24523,23.77282"
       style="fill:none;stroke:#000000;stroke-width:1.63305;stroke-linecap:round;stroke-miterlimit:4;stroke-dasharray:none;stroke-dashoffset:0"
       id="rect29-8-9" />
    <path
       sodipodi:nodetypes="csccccssc"
       d="m 558.13686,420.86289 c 13.70635,13.35936 35.44855,14.74834 50.82668,3.24702 0.39325,-0.29412 0.77923,-0.59433 1.15788,-0.90041 m 11.46839,-15.67479 c 1.18788,-3.07336 1.95871,-6.2846 2.29473,-9.54661 m -3.21193,-19.20229 c -0.52779,-1.14024 -1.11817,-2.26437 -1.77201,-3.36818 -9.69186,-16.3618 -30.32436,-23.18829 -48.23258,-15.95826 -17.90822,7.23003 -27.54518,26.27712 -22.52831,44.52634"
       style="fill:none;stroke:#000000;stroke-width:1.75607;stroke-linecap:round;stroke-linejoin:round;stroke-miterlimit:4;stroke-dasharray:none"
       id="path27-7" />
    <path
       sodipodi:nodetypes="cccc"
       d="m 558.28353,421.1105 -42.24524,23.77282 m -10.1438,-17.12479 42.24522,-23.77282"
       style="fill:none;stroke:#000000;stroke-width:1.63305;stroke-linecap:round;stroke-miterlimit:4;stroke-dasharray:none;stroke-dashoffset:0"
       id="rect29-80" />
    <path
       sodipodi:nodetypes="csccccsc"
       d="m 548.12952,504.76311 c -5.01687,18.24922 4.62009,37.29631 22.5283,44.52634 3.62391,1.46307 7.35937,2.35053 11.09316,2.69985 m 19.74802,-3.24152 c 2.47184,-1.10021 4.83021,-2.45615 7.0296,-4.05276 m 12.3757,-15.26556 c 6.94753,-15.65115 2.22826,-34.1859 -11.95096,-44.79055 -15.37813,-11.50132 -37.12033,-10.11234 -50.82668,3.24702"
       style="fill:none;stroke:#000000;stroke-width:1.75607;stroke-linecap:round;stroke-linejoin:round;stroke-miterlimit:4;stroke-dasharray:none"
       id="path27-6-1" />
    <path
       sodipodi:nodetypes="cccc"
       d="M 547.98284,505.01072 505.73762,481.2379 m 10.1438,-17.12479 42.24524,23.77282"
       style="fill:none;stroke:#000000;stroke-width:1.63305;stroke-linecap:round;stroke-miterlimit:4;stroke-dasharray:none;stroke-dashoffset:0"
       id="rect29-8-2" />
    <path
       sodipodi:nodetypes="cccccccscccccccccsccccccscccccccccscsccccscccccscccccccccccccccsccccccccccccccccsccccccccccccccccssccccccccccccccccccccccsccccccccscc"
       d="m 515.87543,464.12272 c 0.12008,-0.4338 0.23218,-0.86966 0.33625,-1.30737 0.0762,-0.32258 0.14806,-0.64614 0.21551,-0.97057 0.034,-0.16275 0.0668,-0.32572 0.0985,-0.4889 0.0315,-0.16277 0.0618,-0.32575 0.091,-0.48891 0.0289,-0.16279 0.0568,-0.32576 0.0836,-0.48891 0.0271,-0.1634 0.0532,-0.32698 0.078,-0.49071 0.0253,-0.16402 0.0495,-0.3282 0.0725,-0.49253 0.0227,-0.16223 0.0444,-0.32459 0.0651,-0.4871 v -0.006 -0.006 c 0.0203,-0.16285 0.0395,-0.32582 0.0575,-0.4889 0.0178,-0.16105 0.0345,-0.32222 0.0501,-0.48348 l 0.002,-0.0109 0.002,-0.0109 c 0.0125,-0.13272 0.0243,-0.26552 0.0353,-0.39837 0.003,-0.0284 0.005,-0.0567 0.008,-0.0851 0.006,-0.07 0.0113,-0.14001 0.0167,-0.21004 0.008,-0.0947 0.014,-0.1895 0.0204,-0.28429 l 0.002,-0.0289 c 0.0109,-0.15566 0.0208,-0.31139 0.0297,-0.46718 0.01,-0.16533 0.0172,-0.33071 0.0242,-0.49614 0.006,-0.13095 0.0107,-0.26194 0.0148,-0.39294 9.5e-4,-0.0344 0.003,-0.0688 0.004,-0.10321 l 0.006,-0.21186 0.006,-0.2861 v -0.0199 c 0.005,-0.3241 0.006,-0.64826 0.002,-0.97238 -0.002,-0.16298 -0.005,-0.32595 -0.01,-0.4889 v -0.009 l -0.006,-0.21005 c -9.5e-4,-0.0326 -0.003,-0.0652 -0.004,-0.0978 -0.004,-0.12315 -0.008,-0.24628 -0.013,-0.3694 l -0.002,-0.0308 c -0.004,-0.0948 -0.009,-0.18953 -0.013,-0.28428 l -0.004,-0.0743 c -0.007,-0.11229 -0.0131,-0.22456 -0.0204,-0.3368 l -0.006,-0.0851 c -0.005,-0.07 -0.01,-0.14004 -0.0148,-0.21004 v -0.0109 c -0.0119,-0.16184 -0.0249,-0.32361 -0.039,-0.48529 -0.0116,-0.13889 -0.024,-0.27771 -0.0372,-0.41647 -0.003,-0.026 -0.005,-0.0519 -0.008,-0.0779 -0.01,-0.0948 -0.0194,-0.18956 -0.0297,-0.28429 l -0.004,-0.0254 c -0.013,-0.12319 -0.0266,-0.24632 -0.0409,-0.36939 -0.004,-0.0332 -0.008,-0.0664 -0.0111,-0.0996 -0.009,-0.0701 -0.0171,-0.14006 -0.0261,-0.21005 -0.012,-0.0942 -0.0245,-0.18837 -0.0372,-0.28248 l -0.002,-0.0181 c -0.0167,-0.12381 -0.034,-0.24755 -0.052,-0.3712 -0.005,-0.0344 -0.01,-0.0688 -0.0148,-0.10321 -0.0104,-0.0694 -0.0208,-0.13885 -0.0316,-0.20823 -0.006,-0.0326 -0.0111,-0.0652 -0.0168,-0.0978 -0.0204,-0.13108 -0.0414,-0.26206 -0.0631,-0.39293 -0.0274,-0.16376 -0.0558,-0.32734 -0.0855,-0.49072 -0.0269,-0.15167 -0.0548,-0.30317 -0.0836,-0.4545 l -0.008,-0.0344 c -0.0182,-0.093 -0.0368,-0.18597 -0.0557,-0.27885 -0.0141,-0.0694 -0.0283,-0.13887 -0.0427,-0.20824 -0.008,-0.0375 -0.0161,-0.0749 -0.0242,-0.11227 -0.0248,-0.11662 -0.0502,-0.23311 -0.0762,-0.34948 l -0.006,-0.0236 c -0.0207,-0.093 -0.0418,-0.18598 -0.0632,-0.27885 -0.0159,-0.0689 -0.032,-0.13767 -0.0483,-0.20643 -0.01,-0.038 -0.0186,-0.076 -0.0279,-0.11407 -0.0262,-0.10876 -0.0528,-0.21742 -0.0799,-0.32595 l -0.0111,-0.0435 c -0.0232,-0.0924 -0.0467,-0.18478 -0.0706,-0.27705 -0.0178,-0.0682 -0.0357,-0.13646 -0.0538,-0.20461 -0.01,-0.0338 -0.0185,-0.0676 -0.0279,-0.10141 -0.016,-0.0591 -0.0321,-0.11834 -0.0483,-0.17745 m -9.98378,-16.85638 c -3.58894,-3.50101 -7.85088,-6.27795 -12.54198,-8.17198 -4.74316,-1.91533 -9.83048,-2.8898 -14.96454,-2.86643 -10.30997,0.0478 -20.01824,4.09879 -27.12313,11.02002 M 441.19835,444.85 c -0.0775,0.28916 -0.15157,0.57931 -0.22208,0.87042 -0.31256,1.28977 -0.55502,2.59473 -0.72639,3.90943 -0.0383,0.29715 -0.073,0.59474 -0.10403,0.8927 -0.006,0.0513 -0.0112,0.1026 -0.0167,0.15392 l -0.006,0.0525 c -0.0125,0.12791 -0.0242,0.25587 -0.0353,0.38388 -0.0147,0.1647 -0.0283,0.32947 -0.0409,0.49434 -0.0123,0.16531 -0.0234,0.3307 -0.0335,0.49615 -0.009,0.13758 -0.0156,0.2752 -0.0223,0.41285 -0.003,0.0368 -0.005,0.0736 -0.008,0.11046 -0.005,0.11286 -0.01,0.22572 -0.013,0.33862 -0.003,0.0652 -0.005,0.13037 -0.008,0.19556 -9.5e-4,0.0464 -0.003,0.093 -0.004,0.13943 -0.004,0.12251 -0.007,0.24503 -0.01,0.36758 l -0.002,0.038 c -0.002,0.12735 -0.003,0.25471 -0.004,0.38207 -9.5e-4,0.102 -0.002,0.204 -0.002,0.30601 2e-4,0.10141 8.2e-4,0.20282 0.002,0.30422 9.6e-4,0.1328 0.003,0.26559 0.006,0.39837 0.003,0.13401 0.007,0.26801 0.0111,0.40198 9.5e-4,0.0399 0.003,0.0796 0.004,0.11952 0.002,0.0712 0.005,0.14245 0.008,0.21367 0.004,0.10262 0.009,0.20523 0.013,0.30783 l 0.002,0.0489 c 0.007,0.128 0.0142,0.25596 0.0223,0.38388 0.0101,0.16485 0.0212,0.32964 0.0335,0.49435 0.008,0.10384 0.0157,0.20766 0.0242,0.31144 0.009,0.099 0.0169,0.19801 0.0261,0.29697 0.0122,0.14071 0.0252,0.28134 0.039,0.4219 0.013,0.12079 0.0266,0.24151 0.0409,0.36216 0.005,0.0452 0.01,0.0906 0.0148,0.1358 0.009,0.0712 0.0171,0.14247 0.026,0.21367 0.0126,0.10448 0.0256,0.2089 0.039,0.31327 0.006,0.0452 0.0123,0.0906 0.0185,0.13581 0.0121,0.093 0.0245,0.18595 0.0372,0.27885 0.006,0.0375 0.0111,0.0748 0.0167,0.11227 0.0237,0.16373 0.0484,0.32731 0.0743,0.49072 0.0216,0.13411 0.0439,0.26811 0.0669,0.40198 0.0109,0.0646 0.0222,0.12921 0.0334,0.19376 0.0228,0.12868 0.0464,0.25725 0.0706,0.38569 0.0606,0.32555 0.12566,0.65031 0.19507,0.97419 0.0348,0.16199 0.0708,0.32375 0.10775,0.48528 0.0373,0.1614 0.0757,0.32257 0.11518,0.48348 0.0392,0.16141 0.0794,0.32257 0.12076,0.48347 0.0417,0.16083 0.0844,0.32138 0.12819,0.48166 0.0429,0.15721 0.0868,0.31415 0.1319,0.47081 l 0.008,0.0289 c 0.0442,0.15238 0.0894,0.30449 0.13562,0.45632 0.0478,0.15905 0.0968,0.3178 0.14676,0.47623 0.15018,0.47444 0.30999,0.94594 0.47931,1.41421 0.0565,0.15609 0.11413,0.31181 0.17278,0.46717 0.0584,0.1555 0.11785,0.31063 0.17834,0.46536 0.18199,0.46419 0.37337,0.92481 0.57406,1.38162 0.60249,1.37057 1.28799,2.70504 2.05287,3.99635 9.69195,16.36247 30.32535,23.18905 48.23392,15.95825 4.69045,-1.89423 8.95174,-4.67116 12.54013,-8.17198"
       style="fill:none;stroke:#000000;stroke-width:1.63305;stroke-miterlimit:4;stroke-dasharray:none;stroke-dashoffset:0"
       id="path911-5" />
    <path
       sodipodi:nodetypes="cccc"
       d="m 409.13296,290.31475 -42.24523,23.77282 m -10.14381,-17.12479 42.24523,-23.77282"
       style="fill:none;stroke:#000000;stroke-width:1.63305;stroke-linecap:round;stroke-miterlimit:4;stroke-dasharray:none;stroke-dashoffset:0"
       id="rect29-7-1" />
    <path
       sodipodi:nodetypes="cccc"
       d="m 398.87579,421.09211 -42.24523,-23.77282 m 10.1438,-17.12479 42.24524,23.77282"
       style="fill:none;stroke:#000000;stroke-width:1.63305;stroke-linecap:round;stroke-miterlimit:4;stroke-dasharray:none;stroke-dashoffset:0"
       id="rect29-8-9-3" />
    <path
       sodipodi:nodetypes="cccc"
       d="M 441.12102,444.86493 398.8758,421.09211 m 10.1438,-17.12479 42.24524,23.77282"
       style="fill:none;stroke:#000000;stroke-width:1.63305;stroke-linecap:round;stroke-miterlimit:4;stroke-dasharray:none;stroke-dashoffset:0"
       id="rect29-8-9-4" />
    <path
       sodipodi:nodetypes="cccc"
       d="m 451.37819,266.54193 -42.24524,23.77282 m -10.1438,-17.12479 42.24523,-23.77282"
       style="fill:none;stroke:#000000;stroke-width:1.63305;stroke-linecap:round;stroke-miterlimit:4;stroke-dasharray:none;stroke-dashoffset:0"
       id="rect29-7-1-9" />
    <path
       sodipodi:nodetypes="cccc"
       d="m 249.75831,356.95715 h -48.7806 m 1e-5,-19.774 48.78059,-1e-5"
       style="fill:none;stroke:#000000;stroke-width:1.63305;stroke-linecap:round;stroke-miterlimit:4;stroke-dasharray:none;stroke-dashoffset:0"
       id="rect29-1-1" />
    <text
       transform="matrix(0,0.63960989,-1.563453,0,0,0)"
       id="text28"
       y="-317.3555"
       x="1024.1692"
       style="font-style:normal;font-weight:normal;font-size:242.485px;line-height:1.25;font-family:sans-serif;letter-spacing:0px;word-spacing:0px;fill:#000000;fill-opacity:1;stroke:none;stroke-width:4.5466"
       xml:space="preserve"><tspan
         style="font-style:normal;font-variant:normal;font-weight:normal;font-stretch:normal;font-size:242.485px;font-family:Symbol;-inkscape-font-specification:Symbol;stroke-width:4.5466"
         y="-317.3555"
         x="1024.1692"
         id="tspan26"
         sodipodi:role="line">}</tspan></text>
    <path
       id="path27-1"
       style="fill:none;stroke:#000000;stroke-width:1.75607;stroke-linecap:round;stroke-linejoin:round;stroke-miterlimit:4;stroke-dasharray:none"
       d="M 624.56476,104.19841 A 38.625966,37.648089 0 0 0 665.9668,75.279399 38.625966,37.648089 0 0 0 641.95453,31.496035 38.625966,37.648089 0 0 0 594.28399,48.985304 38.625966,37.648089 0 0 0 605.85177,97.334287" />
    <path
       id="rect29-9"
       style="fill:#ffffff;fill-opacity:1;stroke:#000000;stroke-width:1.63305;stroke-linecap:round;stroke-miterlimit:4;stroke-dasharray:none;stroke-dashoffset:0"
       d="m 624.83929,104.29913 -17.18162,44.49874 m -18.9875,-6.96485 17.1816,-44.498733"
       sodipodi:nodetypes="cccc" />
    <path
       d="m 657.10873,129.77297 a 38.625966,37.648089 0 0 1 22.83043,-44.379893 38.625966,37.648089 0 0 1 48.12306,16.269333 38.625966,37.648089 0 0 1 -10.26777,48.62707 38.625966,37.648089 0 0 1 -50.80351,-3.57514"
       style="fill:none;stroke:#000000;stroke-width:1.75607;stroke-linecap:round;stroke-linejoin:round;stroke-miterlimit:4;stroke-dasharray:none"
       id="path27-1-7" />
    <path
       sodipodi:nodetypes="cccc"
       d="m 656.61115,129.54797 -43.79748,24.0849 m 10.35623,17.61809 43.79748,-24.08487"
       style="fill:#ffffff;fill-opacity:1;stroke:#000000;stroke-width:1.68017;stroke-linecap:round;stroke-miterlimit:4;stroke-dasharray:none;stroke-dashoffset:0"
       id="rect29-9-2" />
    <path
       d="m 661.42326,253.16815 a 38.625966,37.648089 0 0 0 50.64501,-5.29673 38.625966,37.648089 0 0 0 1.22271,-49.63191 38.625966,37.648089 0 0 0 -50.32586,-7.65979 38.625966,37.648089 0 0 0 -14.36037,47.63229"
       style="fill:none;stroke:#000000;stroke-width:1.75607;stroke-linecap:round;stroke-linejoin:round;stroke-miterlimit:4;stroke-dasharray:none"
       id="path27-1-8" />
    <path
       sodipodi:nodetypes="cccc"
       d="M 661.57962,253.79941 622.1677,285.04489 M 608.47489,269.48917 647.8868,238.24371"
       style="fill:#ffffff;fill-opacity:1;stroke:#000000;stroke-width:1.69643;stroke-linecap:round;stroke-miterlimit:4;stroke-dasharray:none;stroke-dashoffset:0"
       id="rect29-9-5" />
    <path
       id="path27-1-7-2"
       style="fill:none;stroke:#000000;stroke-width:1.75607;stroke-linecap:round;stroke-linejoin:round;stroke-miterlimit:4;stroke-dasharray:none"
       d="m 674.07482,291.82809 a 38.625966,37.648089 0 0 1 42.29302,-27.66707 38.625966,37.648089 0 0 1 33.66322,37.25837 38.625966,37.648089 0 0 1 -33.50516,37.39348 38.625966,37.648089 0 0 1 -42.40983,-27.49672" />
    <path
       id="rect29-9-2-6"
       style="fill:#ffffff;fill-opacity:1;stroke:#000000;stroke-width:1.67167;stroke-linecap:round;stroke-miterlimit:4;stroke-dasharray:none;stroke-dashoffset:0"
       d="m 674.05283,291.56149 -51.21466,0.0979 m 0.044,19.73555 51.21464,-0.0979"
       sodipodi:nodetypes="cccc" />
    <path
       d="m 620.72827,596.06887 a 38.625966,37.648089 0 0 1 41.40204,28.919 38.625966,37.648089 0 0 1 -24.01227,43.78337 38.625966,37.648089 0 0 1 -47.67054,-17.48927 38.625966,37.648089 0 0 1 11.56778,-48.34899"
       style="fill:none;stroke:#000000;stroke-width:1.75607;stroke-linecap:round;stroke-linejoin:round;stroke-miterlimit:4;stroke-dasharray:none"
       id="path27-1-9" />
    <path
       sodipodi:nodetypes="cccc"
       d="m 621.0028,595.96815 -18.93162,-46.49874 m -20.2375,2.96485 20.1816,50.49872"
       style="fill:#ffffff;fill-opacity:1;stroke:#000000;stroke-width:1.63305;stroke-linecap:round;stroke-miterlimit:4;stroke-dasharray:none;stroke-dashoffset:0"
       id="rect29-9-4" />
    <path
       id="path27-1-7-7"
       style="fill:none;stroke:#000000;stroke-width:1.75607;stroke-linecap:round;stroke-linejoin:round;stroke-miterlimit:4;stroke-dasharray:none"
       d="m 651.27224,568.49431 a 38.625966,37.648089 0 0 0 22.83043,44.37989 38.625966,37.648089 0 0 0 48.12306,-16.26933 38.625966,37.648089 0 0 0 -10.26777,-48.62707 38.625966,37.648089 0 0 0 -50.80351,3.57514" />
    <path
       id="rect29-9-2-66"
       style="fill:#ffffff;fill-opacity:1;stroke:#000000;stroke-width:1.63305;stroke-linecap:round;stroke-miterlimit:4;stroke-dasharray:none;stroke-dashoffset:0"
       d="m 651.12727,568.74287 -42.40589,-23.49955 m 12.52718,-15.6899 39.90589,21.99952"
       sodipodi:nodetypes="cccc" />
    <path
       id="path27-1-8-3"
       style="fill:none;stroke:#000000;stroke-width:1.75607;stroke-linecap:round;stroke-linejoin:round;stroke-miterlimit:4;stroke-dasharray:none"
       d="m 657.05509,436.66318 a 38.625966,37.648089 0 0 1 50.645,5.29673 38.625966,37.648089 0 0 1 1.22271,49.6319 38.625966,37.648089 0 0 1 -50.32585,7.6598 38.625966,37.648089 0 0 1 -14.36038,-47.63229" />
    <path
       id="rect29-9-5-3"
       style="fill:#ffffff;fill-opacity:1;stroke:#000000;stroke-width:1.63305;stroke-linecap:round;stroke-miterlimit:4;stroke-dasharray:none;stroke-dashoffset:0"
       d="m 657.24315,436.44374 -35.43669,-28.23189 m -11.50656,15.17557 33.93667,28.2319"
       sodipodi:nodetypes="cccc" />
    <path
       d="m 669.70664,398.00324 a 38.625966,37.648089 0 0 0 42.29303,27.66707 38.625966,37.648089 0 0 0 33.66322,-37.25837 38.625966,37.648089 0 0 0 -33.50516,-37.39349 38.625966,37.648089 0 0 0 -42.40983,27.49673"
       style="fill:none;stroke:#000000;stroke-width:1.75607;stroke-linecap:round;stroke-linejoin:round;stroke-miterlimit:4;stroke-dasharray:none"
       id="path27-1-7-2-3" />
    <path
       sodipodi:nodetypes="cccc"
       d="m 670.45605,398.03915 -46.5305,0.1519 m -2.9581,-19.77398 48.78048,0.0981"
       style="fill:#ffffff;fill-opacity:1;stroke:#000000;stroke-width:1.63305;stroke-linecap:round;stroke-miterlimit:4;stroke-dasharray:none;stroke-dashoffset:0"
       id="rect29-9-2-6-0" />
    <text
       transform="translate(284.92596,124.45079)"
       id="text993"
       y="637.8103"
       x="282.84271"
       style="font-style:normal;font-variant:normal;font-weight:normal;font-stretch:normal;font-size:53.3333px;line-height:1.25;font-family:'Imprint MT Shadow';-inkscape-font-specification:'Imprint MT Shadow';letter-spacing:0px;word-spacing:0px;white-space:pre;inline-size:0;fill:#000000;fill-opacity:1;stroke:none"
       xml:space="preserve"><tspan
         style="font-style:italic;font-variant:normal;font-weight:normal;font-stretch:normal;font-size:53.3333px;font-family:Constantia;-inkscape-font-specification:'Constantia Italic'"
         y="637.8103"
         x="282.84271"
         id="tspan991">N = 2</tspan></text>
    <text
       xml:space="preserve"
       style="font-style:normal;font-weight:normal;font-size:128.048px;line-height:1.25;font-family:sans-serif;letter-spacing:0px;word-spacing:0px;fill:#000000;fill-opacity:1;stroke:none;stroke-width:2.4009"
       x="992.56897"
       y="356.34747"
       id="text28-6"
       transform="matrix(0.74854632,-0.0034383,0.01151165,1.3358698,0,0)"><tspan
         sodipodi:role="line"
         id="tspan26-8"
         x="992.56897"
         y="356.34747"
         style="font-style:normal;font-variant:normal;font-weight:normal;font-stretch:normal;font-size:128.048px;font-family:Symbol;-inkscape-font-specification:Symbol;stroke-width:2.4009">}</tspan></text>
    <text
       xml:space="preserve"
       style="font-style:normal;font-variant:normal;font-weight:normal;font-stretch:normal;font-size:53.3333px;line-height:1.25;font-family:'Imprint MT Shadow';-inkscape-font-specification:'Imprint MT Shadow';letter-spacing:0px;word-spacing:0px;white-space:pre;inline-size:0;fill:#000000;fill-opacity:1;stroke:none"
       x="282.84271"
       y="637.8103"
       id="text993-9"
       transform="translate(507.2059,-191.17861)"><tspan
         id="tspan991-8"
         x="282.84271"
         y="637.8103"
         style="font-style:italic;font-variant:normal;font-weight:normal;font-stretch:normal;font-size:53.3333px;font-family:Constantia;-inkscape-font-specification:'Constantia Italic'">K = 2</tspan></text>
    <path
       id="path1033"
       d="m 121.23402,346.53552 h 48.545"
       style="fill:none;stroke:#000000;stroke-width:4.33898;stroke-linecap:butt;stroke-linejoin:miter;stroke-miterlimit:4;stroke-dasharray:none;stroke-opacity:1;marker-end:url(#TriangleOutM)" />
    <text
       xml:space="preserve"
       style="font-style:normal;font-variant:normal;font-weight:normal;font-stretch:normal;font-size:53.3333px;line-height:1.25;font-family:'Imprint MT Shadow';-inkscape-font-specification:'Imprint MT Shadow';letter-spacing:0px;word-spacing:0px;white-space:pre;inline-size:0;fill:#000000;fill-opacity:1;stroke:none"
       x="282.84271"
       y="637.8103"
       id="text993-6"
       transform="matrix(0.58020791,0,0,0.58020791,-58.488924,-45.744456)"><tspan
         id="tspan991-5"
         x="282.84271"
         y="637.8103"
         style="font-style:italic;font-variant:normal;font-weight:normal;font-stretch:normal;font-size:53.3333px;font-family:Constantia;-inkscape-font-specification:'Constantia Italic'">p<tspan
   id="tspan1663"
   style="font-size:65%;baseline-shift:sub">0</tspan></tspan></text>
    <text
       transform="matrix(0.7514609,0,0,0.7514609,-67.071219,-158.08601)"
       id="text993-6-1"
       y="637.8103"
       x="282.84271"
       style="font-style:normal;font-variant:normal;font-weight:normal;font-stretch:normal;font-size:53.3333px;line-height:1.25;font-family:'Imprint MT Shadow';-inkscape-font-specification:'Imprint MT Shadow';letter-spacing:0px;word-spacing:0px;white-space:pre;inline-size:0;fill:#000000;fill-opacity:1;stroke:none"
       xml:space="preserve"><tspan
         style="font-style:italic;font-variant:normal;font-weight:normal;font-stretch:normal;font-size:53.3333px;font-family:Constantia;-inkscape-font-specification:'Constantia Italic'"
         y="637.8103"
         x="282.84271"
         id="tspan991-5-9"><tspan
           style="font-size:65%;baseline-shift:sub"
           id="tspan1663-7">U00</tspan></tspan></text>
    <text
       transform="matrix(0.58020791,0,0,0.58020791,42.999928,49.830509)"
       id="text993-6-3"
       y="637.8103"
       x="282.84271"
       style="font-style:normal;font-variant:normal;font-weight:normal;font-stretch:normal;font-size:53.3333px;line-height:1.25;font-family:'Imprint MT Shadow';-inkscape-font-specification:'Imprint MT Shadow';letter-spacing:0px;word-spacing:0px;white-space:pre;inline-size:0;fill:#000000;fill-opacity:1;stroke:none"
       xml:space="preserve"><tspan
         style="font-style:italic;font-variant:normal;font-weight:normal;font-stretch:normal;font-size:53.3333px;font-family:Constantia;-inkscape-font-specification:'Constantia Italic'"
         y="637.8103"
         x="282.84271"
         id="tspan991-5-3"><tspan
           style="font-size:65%;baseline-shift:sub"
           id="tspan1663-9" /></tspan></text>
    <text
       xml:space="preserve"
       style="font-style:normal;font-variant:normal;font-weight:normal;font-stretch:normal;font-size:53.3333px;line-height:1.25;font-family:'Imprint MT Shadow';-inkscape-font-specification:'Imprint MT Shadow';letter-spacing:0px;word-spacing:0px;white-space:pre;inline-size:0;fill:#000000;fill-opacity:1;stroke:none"
       x="282.84271"
       y="637.8103"
       id="text993-6-1-6"
       transform="matrix(0.7514609,0,0,0.7514609,49.436074,-131.42152)"><tspan
         id="tspan991-5-9-4"
         x="282.84271"
         y="637.8103"
         style="font-style:italic;font-variant:normal;font-weight:normal;font-stretch:normal;font-size:53.3333px;font-family:Constantia;-inkscape-font-specification:'Constantia Italic'"><tspan
           id="tspan1663-7-1"
           style="font-size:65%;baseline-shift:sub">H00</tspan></tspan></text>
    <text
       transform="matrix(0.7514609,0,0,0.7514609,240.98455,-239.56434)"
       id="text993-6-1-6-9"
       y="637.8103"
       x="282.84271"
       style="font-style:normal;font-variant:normal;font-weight:normal;font-stretch:normal;font-size:53.3333px;line-height:1.25;font-family:'Imprint MT Shadow';-inkscape-font-specification:'Imprint MT Shadow';letter-spacing:0px;word-spacing:0px;white-space:pre;inline-size:0;fill:#000000;fill-opacity:1;stroke:none"
       xml:space="preserve"><tspan
         style="font-style:italic;font-variant:normal;font-weight:normal;font-stretch:normal;font-size:53.3333px;font-family:Constantia;-inkscape-font-specification:'Constantia Italic'"
         y="637.8103"
         x="282.84271"
         id="tspan991-5-9-4-9"><tspan
           style="font-size:65%;baseline-shift:sub"
           id="tspan1663-7-1-7">H10</tspan></tspan></text>
    <text
       transform="matrix(0.7514609,0,0,0.7514609,347.75766,-298.25419)"
       id="text993-6-1-6-6"
       y="637.8103"
       x="282.84271"
       style="font-style:normal;font-variant:normal;font-weight:normal;font-stretch:normal;font-size:53.3333px;line-height:1.25;font-family:'Imprint MT Shadow';-inkscape-font-specification:'Imprint MT Shadow';letter-spacing:0px;word-spacing:0px;white-space:pre;inline-size:0;fill:#000000;fill-opacity:1;stroke:none"
       xml:space="preserve"><tspan
         style="font-style:italic;font-variant:normal;font-weight:normal;font-stretch:normal;font-size:53.3333px;font-family:Constantia;-inkscape-font-specification:'Constantia Italic'"
         y="637.8103"
         x="282.84271"
         id="tspan991-5-9-4-5"><tspan
           style="font-size:65%;baseline-shift:sub"
           id="tspan1663-7-1-6">H20</tspan></tspan></text>
    <text
       transform="matrix(0.7514609,0,0,0.7514609,390.89119,-412.09839)"
       id="text993-6-1-6-4"
       y="637.8103"
       x="282.84271"
       style="font-style:normal;font-variant:normal;font-weight:normal;font-stretch:normal;font-size:53.3333px;line-height:1.25;font-family:'Imprint MT Shadow';-inkscape-font-specification:'Imprint MT Shadow';letter-spacing:0px;word-spacing:0px;white-space:pre;inline-size:0;fill:#000000;fill-opacity:1;stroke:none"
       xml:space="preserve"><tspan
         style="font-style:italic;font-variant:normal;font-weight:normal;font-stretch:normal;font-size:53.3333px;font-family:Constantia;-inkscape-font-specification:'Constantia Italic'"
         y="637.8103"
         x="282.84271"
         id="tspan991-5-9-4-55"><tspan
           style="font-size:65%;baseline-shift:sub"
           id="tspan1663-7-1-0">H30</tspan></tspan></text>
    <text
       transform="matrix(0.7514609,0,0,0.7514609,457.35922,-357.65116)"
       id="text993-6-1-6-5"
       y="637.8103"
       x="282.84271"
       style="font-style:normal;font-variant:normal;font-weight:normal;font-stretch:normal;font-size:53.3333px;line-height:1.25;font-family:'Imprint MT Shadow';-inkscape-font-specification:'Imprint MT Shadow';letter-spacing:0px;word-spacing:0px;white-space:pre;inline-size:0;fill:#000000;fill-opacity:1;stroke:none"
       xml:space="preserve"><tspan
         style="font-style:italic;font-variant:normal;font-weight:normal;font-stretch:normal;font-size:53.3333px;font-family:Constantia;-inkscape-font-specification:'Constantia Italic'"
         y="637.8103"
         x="282.84271"
         id="tspan991-5-9-4-0"><tspan
           style="font-size:65%;baseline-shift:sub"
           id="tspan1663-7-1-65">H31</tspan></tspan></text>
    <text
       transform="matrix(0.7514609,0,0,0.7514609,446.04551,-257.94911)"
       id="text993-6-1-6-2"
       y="637.8103"
       x="282.84271"
       style="font-style:normal;font-variant:normal;font-weight:normal;font-stretch:normal;font-size:53.3333px;line-height:1.25;font-family:'Imprint MT Shadow';-inkscape-font-specification:'Imprint MT Shadow';letter-spacing:0px;word-spacing:0px;white-space:pre;inline-size:0;fill:#000000;fill-opacity:1;stroke:none"
       xml:space="preserve"><tspan
         style="font-style:italic;font-variant:normal;font-weight:normal;font-stretch:normal;font-size:53.3333px;font-family:Constantia;-inkscape-font-specification:'Constantia Italic'"
         y="637.8103"
         x="282.84271"
         id="tspan991-5-9-4-6"><tspan
           style="font-size:65%;baseline-shift:sub"
           id="tspan1663-7-1-3">H32</tspan></tspan></text>
    <text
       transform="matrix(0.7514609,0,0,0.7514609,348.46477,-179.46026)"
       id="text993-6-1-6-42"
       y="637.8103"
       x="282.84271"
       style="font-style:normal;font-variant:normal;font-weight:normal;font-stretch:normal;font-size:53.3333px;line-height:1.25;font-family:'Imprint MT Shadow';-inkscape-font-specification:'Imprint MT Shadow';letter-spacing:0px;word-spacing:0px;white-space:pre;inline-size:0;fill:#000000;fill-opacity:1;stroke:none"
       xml:space="preserve"><tspan
         style="font-style:italic;font-variant:normal;font-weight:normal;font-stretch:normal;font-size:53.3333px;font-family:Constantia;-inkscape-font-specification:'Constantia Italic'"
         y="637.8103"
         x="282.84271"
         id="tspan991-5-9-4-8"><tspan
           style="font-size:65%;baseline-shift:sub"
           id="tspan1663-7-1-72">H21</tspan></tspan></text>
    <text
       transform="matrix(0.7514609,0,0,0.7514609,472.20845,-180.16737)"
       id="text993-6-1-6-95"
       y="637.8103"
       x="282.84271"
       style="font-style:normal;font-variant:normal;font-weight:normal;font-stretch:normal;font-size:53.3333px;line-height:1.25;font-family:'Imprint MT Shadow';-inkscape-font-specification:'Imprint MT Shadow';letter-spacing:0px;word-spacing:0px;white-space:pre;inline-size:0;fill:#000000;fill-opacity:1;stroke:none"
       xml:space="preserve"><tspan
         style="font-style:italic;font-variant:normal;font-weight:normal;font-stretch:normal;font-size:53.3333px;font-family:Constantia;-inkscape-font-specification:'Constantia Italic'"
         y="637.8103"
         x="282.84271"
         id="tspan991-5-9-4-2"><tspan
           style="font-size:65%;baseline-shift:sub"
           id="tspan1663-7-1-78">H33</tspan></tspan></text>
    <text
       transform="matrix(0.7514609,0,0,0.7514609,468.67292,-90.364807)"
       id="text993-6-1-6-98"
       y="637.8103"
       x="282.84271"
       style="font-style:normal;font-variant:normal;font-weight:normal;font-stretch:normal;font-size:53.3333px;line-height:1.25;font-family:'Imprint MT Shadow';-inkscape-font-specification:'Imprint MT Shadow';letter-spacing:0px;word-spacing:0px;white-space:pre;inline-size:0;fill:#000000;fill-opacity:1;stroke:none"
       xml:space="preserve"><tspan
         style="font-style:italic;font-variant:normal;font-weight:normal;font-stretch:normal;font-size:53.3333px;font-family:Constantia;-inkscape-font-specification:'Constantia Italic'"
         y="637.8103"
         x="282.84271"
         id="tspan991-5-9-4-1"><tspan
           style="font-size:65%;baseline-shift:sub"
           id="tspan1663-7-1-71">H34</tspan></tspan></text>
    <text
       transform="matrix(0.7514609,0,0,0.7514609,348.46478,-85.415059)"
       id="text993-6-1-6-0"
       y="637.8103"
       x="282.84271"
       style="font-style:normal;font-variant:normal;font-weight:normal;font-stretch:normal;font-size:53.3333px;line-height:1.25;font-family:'Imprint MT Shadow';-inkscape-font-specification:'Imprint MT Shadow';letter-spacing:0px;word-spacing:0px;white-space:pre;inline-size:0;fill:#000000;fill-opacity:1;stroke:none"
       xml:space="preserve"><tspan
         style="font-style:italic;font-variant:normal;font-weight:normal;font-stretch:normal;font-size:53.3333px;font-family:Constantia;-inkscape-font-specification:'Constantia Italic'"
         y="637.8103"
         x="282.84271"
         id="tspan991-5-9-4-63"><tspan
           style="font-size:65%;baseline-shift:sub"
           id="tspan1663-7-1-8">H23</tspan></tspan></text>
    <text
       transform="matrix(0.7514609,0,0,0.7514609,442.50997,-11.168849)"
       id="text993-6-1-6-424"
       y="637.8103"
       x="282.84271"
       style="font-style:normal;font-variant:normal;font-weight:normal;font-stretch:normal;font-size:53.3333px;line-height:1.25;font-family:'Imprint MT Shadow';-inkscape-font-specification:'Imprint MT Shadow';letter-spacing:0px;word-spacing:0px;white-space:pre;inline-size:0;fill:#000000;fill-opacity:1;stroke:none"
       xml:space="preserve"><tspan
         style="font-style:italic;font-variant:normal;font-weight:normal;font-stretch:normal;font-size:53.3333px;font-family:Constantia;-inkscape-font-specification:'Constantia Italic'"
         y="637.8103"
         x="282.84271"
         id="tspan991-5-9-4-4"><tspan
           style="font-size:65%;baseline-shift:sub"
           id="tspan1663-7-1-1">H35</tspan></tspan></text>
    <text
       transform="matrix(0.7514609,0,0,0.7514609,451.70235,99.139806)"
       id="text993-6-1-6-45"
       y="637.8103"
       x="282.84271"
       style="font-style:normal;font-variant:normal;font-weight:normal;font-stretch:normal;font-size:53.3333px;line-height:1.25;font-family:'Imprint MT Shadow';-inkscape-font-specification:'Imprint MT Shadow';letter-spacing:0px;word-spacing:0px;white-space:pre;inline-size:0;fill:#000000;fill-opacity:1;stroke:none"
       xml:space="preserve"><tspan
         style="font-style:italic;font-variant:normal;font-weight:normal;font-stretch:normal;font-size:53.3333px;font-family:Constantia;-inkscape-font-specification:'Constantia Italic'"
         y="637.8103"
         x="282.84271"
         id="tspan991-5-9-4-7"><tspan
           style="font-size:65%;baseline-shift:sub"
           id="tspan1663-7-1-655">H36</tspan></tspan></text>
    <text
       transform="matrix(0.7514609,0,0,0.7514609,386.64854,157.12256)"
       id="text993-6-1-6-43"
       y="637.8103"
       x="282.84271"
       style="font-style:normal;font-variant:normal;font-weight:normal;font-stretch:normal;font-size:53.3333px;line-height:1.25;font-family:'Imprint MT Shadow';-inkscape-font-specification:'Imprint MT Shadow';letter-spacing:0px;word-spacing:0px;white-space:pre;inline-size:0;fill:#000000;fill-opacity:1;stroke:none"
       xml:space="preserve"><tspan
         style="font-style:italic;font-variant:normal;font-weight:normal;font-stretch:normal;font-size:53.3333px;font-family:Constantia;-inkscape-font-specification:'Constantia Italic'"
         y="637.8103"
         x="282.84271"
         id="tspan991-5-9-4-02"><tspan
           style="font-size:65%;baseline-shift:sub"
           id="tspan1663-7-1-07">H37</tspan></tspan></text>
    <text
       transform="matrix(0.7514609,0,0,0.7514609,349.17188,36.207303)"
       id="text993-6-1-6-56"
       y="637.8103"
       x="282.84271"
       style="font-style:normal;font-variant:normal;font-weight:normal;font-stretch:normal;font-size:53.3333px;line-height:1.25;font-family:'Imprint MT Shadow';-inkscape-font-specification:'Imprint MT Shadow';letter-spacing:0px;word-spacing:0px;white-space:pre;inline-size:0;fill:#000000;fill-opacity:1;stroke:none"
       xml:space="preserve"><tspan
         style="font-style:italic;font-variant:normal;font-weight:normal;font-stretch:normal;font-size:53.3333px;font-family:Constantia;-inkscape-font-specification:'Constantia Italic'"
         y="637.8103"
         x="282.84271"
         id="tspan991-5-9-4-3"><tspan
           style="font-size:65%;baseline-shift:sub"
           id="tspan1663-7-1-4">H24</tspan></tspan></text>
    <text
       transform="matrix(0.7514609,0,0,0.7514609,243.81297,-24.603878)"
       id="text993-6-1-6-60"
       y="637.8103"
       x="282.84271"
       style="font-style:normal;font-variant:normal;font-weight:normal;font-stretch:normal;font-size:53.3333px;line-height:1.25;font-family:'Imprint MT Shadow';-inkscape-font-specification:'Imprint MT Shadow';letter-spacing:0px;word-spacing:0px;white-space:pre;inline-size:0;fill:#000000;fill-opacity:1;stroke:none"
       xml:space="preserve"><tspan
         style="font-style:italic;font-variant:normal;font-weight:normal;font-stretch:normal;font-size:53.3333px;font-family:Constantia;-inkscape-font-specification:'Constantia Italic'"
         y="637.8103"
         x="282.84271"
         id="tspan991-5-9-4-23"><tspan
           style="font-size:65%;baseline-shift:sub"
           id="tspan1663-7-1-30">H11</tspan></tspan></text>
  </g>
</svg>
