<?xml version="1.0" encoding="UTF-8" standalone="no"?>
<svg
   xmlns:dc="http://purl.org/dc/elements/1.1/"
   xmlns:cc="http://creativecommons.org/ns#"
   xmlns:rdf="http://www.w3.org/1999/02/22-rdf-syntax-ns#"
   xmlns:svg="http://www.w3.org/2000/svg"
   xmlns="http://www.w3.org/2000/svg"
   xmlns:sodipodi="http://sodipodi.sourceforge.net/DTD/sodipodi-0.dtd"
   xmlns:inkscape="http://www.inkscape.org/namespaces/inkscape"
   width="1040px"
   height="780px"
   viewBox="0 0 1040 780"
   version="1.1"
   id="SVGRoot"
   sodipodi:docname="tree.svg"
   inkscape:version="1.0.1 (3bc2e813f5, 2020-09-07)">
  <defs
     id="defs10" />
  <sodipodi:namedview
     id="base"
     pagecolor="#ffffff"
     bordercolor="#666666"
     borderopacity="1.0"
     inkscape:pageopacity="0.0"
     inkscape:pageshadow="2"
     inkscape:zoom="1.4142136"
     inkscape:cx="527.80925"
     inkscape:cy="282.34208"
     inkscape:document-units="px"
     inkscape:current-layer="layer1"
     inkscape:document-rotation="0"
     showgrid="false"
     inkscape:window-width="1920"
     inkscape:window-height="1001"
     inkscape:window-x="-9"
     inkscape:window-y="-9"
     inkscape:window-maximized="1"
     showguides="false" />
  <metadata
     id="metadata13">
    <rdf:RDF>
      <cc:Work
         rdf:about="">
        <dc:format>image/svg+xml</dc:format>
        <dc:type
           rdf:resource="http://purl.org/dc/dcmitype/StillImage" />
        <dc:title />
      </cc:Work>
    </rdf:RDF>
  </metadata>
  <g
     inkscape:label="Livello 1"
     inkscape:groupmode="layer"
     id="layer1">
    <path
       id="path27"
       style="fill:none;stroke:#000000;stroke-width:0.670267;stroke-linecap:round;stroke-linejoin:round;stroke-miterlimit:4;stroke-dasharray:none"
       d="m 677.46517,170.79023 a 40.608002,40.608002 0 0 0 53.43478,3.5023 40.608002,40.608002 0 0 0 10.44697,-52.52049 40.608002,40.608002 0 0 0 -50.70757,-17.21291 40.608002,40.608002 0 0 0 -23.68431,48.02703" />
    <path
       id="rect29"
       style="fill:none;stroke:#000000;stroke-width:1.739;stroke-linecap:round;stroke-miterlimit:4;stroke-dasharray:none;stroke-dashoffset:0"
       d="m 677.61937,171.05731 -44.41299,25.64185 m -10.66432,-18.47115 44.41298,-25.64185"
       sodipodi:nodetypes="cccc" />
    <path
       id="path27-6"
       style="fill:none;stroke:#000000;stroke-width:0.670267;stroke-linecap:round;stroke-linejoin:round;stroke-miterlimit:4;stroke-dasharray:none"
       d="m 666.94432,261.28673 a 40.608002,40.608002 0 0 0 23.68431,48.02703 40.608002,40.608002 0 0 0 50.70757,-17.2129 40.608002,40.608002 0 0 0 -10.44697,-52.5205 40.608002,40.608002 0 0 0 -53.43478,3.5023" />
    <path
       id="rect29-8"
       style="fill:none;stroke:#000000;stroke-width:1.739;stroke-linecap:round;stroke-miterlimit:4;stroke-dasharray:none;stroke-dashoffset:0"
       d="m 666.79012,261.55381 -44.41298,-25.64185 m 10.66432,-18.47115 44.41299,25.64185"
       sodipodi:nodetypes="cccc" />
    <path
       id="path911"
       style="fill:none;stroke:#000000;stroke-width:1.739;stroke-miterlimit:4;stroke-dasharray:none;stroke-dashoffset:0"
       d="m 633.03516,217.45117 c 0.12624,-0.4679 0.2441,-0.93803 0.35351,-1.41015 0.0801,-0.34795 0.15565,-0.69694 0.22656,-1.04688 0.0357,-0.17555 0.0702,-0.35133 0.10352,-0.52734 0.0331,-0.17557 0.065,-0.35136 0.0957,-0.52735 0.0304,-0.17559 0.0597,-0.35137 0.0879,-0.52734 0.0285,-0.17625 0.0559,-0.35269 0.082,-0.5293 0.0266,-0.17691 0.052,-0.354 0.0762,-0.53125 0.0239,-0.17498 0.0467,-0.35011 0.0684,-0.52539 v -0.006 -0.006 c 0.0213,-0.17565 0.0415,-0.35143 0.0605,-0.52734 0.0187,-0.17371 0.0363,-0.34755 0.0527,-0.52149 l 0.002,-0.0117 0.002,-0.0117 c 0.0131,-0.14316 0.0255,-0.2864 0.0371,-0.42969 0.003,-0.0306 0.005,-0.0612 0.008,-0.0918 0.006,-0.0755 0.0119,-0.15102 0.0176,-0.22656 0.008,-0.10219 0.0147,-0.2044 0.0215,-0.30664 l 0.002,-0.0312 c 0.0115,-0.1679 0.0219,-0.33588 0.0312,-0.50391 0.01,-0.17833 0.0181,-0.35671 0.0254,-0.53515 0.006,-0.14125 0.0112,-0.28253 0.0156,-0.42383 10e-4,-0.0371 0.003,-0.0742 0.004,-0.11133 l 0.006,-0.22851 0.006,-0.3086 v -0.0215 c 0.005,-0.34959 0.006,-0.69923 0.002,-1.04883 -0.002,-0.1758 -0.005,-0.35158 -0.01,-0.52734 v -0.01 l -0.006,-0.22656 c -10e-4,-0.0352 -0.003,-0.0703 -0.004,-0.10547 -0.004,-0.13283 -0.008,-0.26565 -0.0137,-0.39844 l -0.002,-0.0332 c -0.004,-0.10223 -0.009,-0.20444 -0.0137,-0.30664 l -0.004,-0.0801 c -0.007,-0.12112 -0.0138,-0.24222 -0.0215,-0.36328 l -0.006,-0.0918 c -0.005,-0.0755 -0.0102,-0.15105 -0.0156,-0.22656 v -0.0117 c -0.0125,-0.17457 -0.0262,-0.34905 -0.041,-0.52344 -0.0122,-0.14981 -0.0252,-0.29955 -0.0391,-0.44922 -0.003,-0.028 -0.005,-0.056 -0.008,-0.084 -0.01,-0.10225 -0.0204,-0.20447 -0.0312,-0.30664 l -0.004,-0.0273 c -0.0137,-0.13288 -0.028,-0.26569 -0.043,-0.39843 -0.004,-0.0358 -0.008,-0.0716 -0.0117,-0.10742 -0.009,-0.0756 -0.018,-0.15107 -0.0274,-0.22657 -0.0126,-0.10161 -0.0257,-0.20317 -0.0391,-0.30468 l -0.002,-0.0195 c -0.0176,-0.13355 -0.0358,-0.26702 -0.0547,-0.40039 -0.005,-0.0371 -0.0104,-0.0742 -0.0156,-0.11132 -0.0109,-0.0749 -0.0219,-0.14977 -0.0332,-0.22461 -0.006,-0.0352 -0.0117,-0.0703 -0.0176,-0.10547 -0.0214,-0.14139 -0.0435,-0.28267 -0.0664,-0.42383 -0.0288,-0.17663 -0.0586,-0.35307 -0.0898,-0.5293 -0.0283,-0.16359 -0.0576,-0.327 -0.0879,-0.49023 l -0.008,-0.0371 c -0.0191,-0.10033 -0.0387,-0.20059 -0.0586,-0.30078 -0.0148,-0.0749 -0.0297,-0.14978 -0.0449,-0.22461 -0.008,-0.0404 -0.0169,-0.0808 -0.0254,-0.1211 -0.0261,-0.12578 -0.0528,-0.25143 -0.0801,-0.37695 l -0.006,-0.0254 c -0.0218,-0.10034 -0.0439,-0.2006 -0.0664,-0.30078 -0.0167,-0.0743 -0.0336,-0.14849 -0.0508,-0.22266 -0.01,-0.041 -0.0195,-0.082 -0.0293,-0.12304 -0.0275,-0.11731 -0.0555,-0.23451 -0.084,-0.35157 l -0.0117,-0.0469 c -0.0244,-0.0997 -0.0491,-0.19931 -0.0742,-0.29883 -0.0187,-0.0736 -0.0375,-0.14719 -0.0566,-0.2207 -0.01,-0.0365 -0.0195,-0.0729 -0.0293,-0.10938 -0.0168,-0.0638 -0.0337,-0.12764 -0.0508,-0.1914"
       sodipodi:nodetypes="ccsccccscccsccccccscsccccccsccccccccsccccccccscsccccccccccsccccscccccccc" />
    <path
       id="path1039"
       style="fill:none;stroke:#000000;stroke-width:1.739;stroke-miterlimit:4;stroke-dasharray:none;stroke-dashoffset:0;stroke-linecap:butt"
       d="m 622.54297,178.22852 c -3.7731,-3.77626 -8.25373,-6.77153 -13.18555,-8.81446 -4.98655,-2.06592 -10.33492,-3.117 -15.73242,-3.09179 -14.439,0.0688 -27.75543,7.79976 -34.97461,20.30468 -1.97892,3.42708 -3.44626,7.12503 -4.35547,10.97657 -0.3286,1.39118 -0.58351,2.79873 -0.76367,4.21679 -0.0403,0.32052 -0.0767,0.6415 -0.10937,0.96289 -0.006,0.0553 -0.0118,0.11067 -0.0176,0.16602 l -0.008,0.0566 c -0.0131,0.13796 -0.0254,0.27598 -0.0371,0.41406 -0.0155,0.17764 -0.0298,0.35537 -0.043,0.5332 -0.0129,0.17832 -0.0246,0.3567 -0.0352,0.53516 -0.009,0.14839 -0.0164,0.29683 -0.0234,0.44531 -0.003,0.0397 -0.005,0.0794 -0.008,0.11914 -0.005,0.12173 -0.01,0.24347 -0.0137,0.36524 -0.003,0.0703 -0.005,0.14062 -0.008,0.21094 -10e-4,0.0501 -0.003,0.10026 -0.004,0.15039 -0.004,0.13214 -0.007,0.2643 -0.01,0.39648 l -0.002,0.041 c -0.002,0.13736 -0.003,0.27473 -0.004,0.41211 -0.001,0.11002 -0.002,0.22004 -0.002,0.33007 2.1e-4,0.10938 8.1e-4,0.21876 0.002,0.32813 10e-4,0.14324 0.003,0.28647 0.006,0.42969 0.003,0.14455 0.007,0.28908 0.0117,0.43359 10e-4,0.043 0.003,0.0859 0.004,0.12891 0.002,0.0768 0.005,0.15365 0.008,0.23047 0.004,0.11069 0.009,0.22137 0.0137,0.33203 l 0.002,0.0527 c 0.007,0.13806 0.0149,0.27608 0.0234,0.41406 0.0106,0.17781 0.0223,0.35555 0.0352,0.53321 0.008,0.11201 0.0165,0.22399 0.0254,0.33593 0.009,0.10681 0.0177,0.21358 0.0273,0.32032 0.0128,0.15177 0.0265,0.30347 0.041,0.45507 0.0137,0.13028 0.028,0.26049 0.043,0.39063 0.005,0.0488 0.0103,0.0977 0.0156,0.14648 0.009,0.0768 0.0181,0.15367 0.0274,0.23047 0.0132,0.11269 0.0269,0.22532 0.041,0.33789 0.006,0.0488 0.0129,0.0977 0.0195,0.14649 0.0127,0.10031 0.0257,0.20057 0.0391,0.30078 0.006,0.0404 0.0117,0.0807 0.0176,0.12109 0.0249,0.1766 0.0509,0.35304 0.0781,0.5293 0.0227,0.14466 0.0461,0.28919 0.0703,0.43359 0.0115,0.0697 0.0234,0.13936 0.0352,0.20899 0.024,0.1388 0.0488,0.27747 0.0742,0.41601 0.0637,0.35115 0.13211,0.70144 0.20508,1.05078 0.0366,0.17474 0.0744,0.34921 0.11328,0.52344 0.0392,0.17409 0.0796,0.34793 0.12109,0.52149 0.0412,0.1741 0.0835,0.34793 0.12695,0.52148 0.0438,0.17347 0.0887,0.34665 0.13477,0.51953 0.009,0.0347 0.02,0.0689 0.0293,0.10352 v 0 c 0.0362,0.13482 0.0717,0.26986 0.10937,0.4043 l 0.008,0.0312 m 10.49687,17.63255 c 0.0913,0.0919 0.18287,0.1831 0.27462,0.27371 v 0 c 11.3721,11.15263 28.5209,15.00252 43.86914,8.64453 4.93113,-2.04315 9.41107,-5.03841 13.18359,-8.81446"
       sodipodi:nodetypes="ccccccccccccccccccccccscccccccccccccscccccccscccsssccccscc" />
    <path
       id="path911-3"
       style="fill:none;stroke:#000000;stroke-width:1.739;stroke-miterlimit:4;stroke-dasharray:none;stroke-dashoffset:0"
       d="m 431.73445,333.16829 c 0.12624,-0.4679 0.2441,-0.93803 0.35351,-1.41015 0.0801,-0.34795 0.15565,-0.69694 0.22656,-1.04688 0.0357,-0.17555 0.0702,-0.35133 0.10352,-0.52734 0.0331,-0.17557 0.065,-0.35136 0.0957,-0.52735 0.0304,-0.17559 0.0597,-0.35137 0.0879,-0.52734 0.0285,-0.17625 0.0559,-0.35269 0.082,-0.5293 0.0266,-0.17691 0.052,-0.354 0.0762,-0.53125 0.0239,-0.17498 0.0467,-0.35011 0.0684,-0.52539 v -0.006 -0.006 c 0.0213,-0.17565 0.0415,-0.35143 0.0605,-0.52734 0.0187,-0.17371 0.0363,-0.34755 0.0527,-0.52149 l 0.002,-0.0117 0.002,-0.0117 c 0.0131,-0.14316 0.0255,-0.2864 0.0371,-0.42969 0.003,-0.0306 0.005,-0.0612 0.008,-0.0918 0.006,-0.0755 0.0119,-0.15102 0.0176,-0.22656 0.008,-0.10219 0.0147,-0.2044 0.0215,-0.30664 l 0.002,-0.0312 c 0.0115,-0.1679 0.0219,-0.33588 0.0312,-0.50391 0.01,-0.17833 0.0181,-0.35671 0.0254,-0.53515 0.006,-0.14125 0.0112,-0.28253 0.0156,-0.42383 0.001,-0.0371 0.003,-0.0742 0.004,-0.11133 l 0.006,-0.22851 0.006,-0.3086 v -0.0215 c 0.005,-0.34959 0.006,-0.69923 0.002,-1.04883 -0.002,-0.1758 -0.005,-0.35158 -0.01,-0.52734 v -0.01 l -0.006,-0.22656 c -10e-4,-0.0352 -0.003,-0.0703 -0.004,-0.10547 -0.004,-0.13283 -0.008,-0.26565 -0.0137,-0.39844 l -0.002,-0.0332 c -0.004,-0.10223 -0.009,-0.20444 -0.0137,-0.30664 l -0.004,-0.0801 c -0.007,-0.12112 -0.0138,-0.24222 -0.0215,-0.36328 l -0.006,-0.0918 c -0.005,-0.0755 -0.0102,-0.15105 -0.0156,-0.22656 v -0.0117 c -0.0125,-0.17457 -0.0262,-0.34905 -0.041,-0.52344 -0.0122,-0.14981 -0.0252,-0.29955 -0.0391,-0.44922 -0.003,-0.028 -0.005,-0.056 -0.008,-0.084 -0.01,-0.10225 -0.0204,-0.20447 -0.0312,-0.30664 l -0.004,-0.0274 c -0.0137,-0.13288 -0.028,-0.26569 -0.043,-0.39843 -0.004,-0.0358 -0.008,-0.0716 -0.0117,-0.10742 -0.009,-0.0756 -0.018,-0.15107 -0.0274,-0.22657 -0.0126,-0.10161 -0.0257,-0.20317 -0.0391,-0.30468 l -0.002,-0.0195 c -0.0176,-0.13355 -0.0358,-0.26702 -0.0547,-0.40039 -0.005,-0.0371 -0.0104,-0.0742 -0.0156,-0.11132 -0.0109,-0.0749 -0.0219,-0.14977 -0.0332,-0.22461 -0.006,-0.0352 -0.0117,-0.0703 -0.0176,-0.10547 -0.0214,-0.14139 -0.0435,-0.28267 -0.0664,-0.42383 -0.0288,-0.17663 -0.0587,-0.35307 -0.0899,-0.5293 -0.0283,-0.16359 -0.0576,-0.327 -0.0879,-0.49023 l -0.008,-0.0371 c -0.0191,-0.10033 -0.0387,-0.20059 -0.0586,-0.30078 -0.0148,-0.0749 -0.0297,-0.14978 -0.0449,-0.22461 -0.008,-0.0404 -0.0169,-0.0808 -0.0254,-0.1211 -0.0261,-0.12578 -0.0528,-0.25143 -0.0801,-0.37695 l -0.006,-0.0254 c -0.0218,-0.10034 -0.0439,-0.2006 -0.0664,-0.30078 -0.0167,-0.0743 -0.0336,-0.14849 -0.0508,-0.22266 -0.01,-0.041 -0.0195,-0.082 -0.0293,-0.12304 -0.0275,-0.11731 -0.0555,-0.23451 -0.084,-0.35157 l -0.0117,-0.0469 c -0.0244,-0.0997 -0.0491,-0.19931 -0.0742,-0.29883 -0.0187,-0.0736 -0.0375,-0.14719 -0.0566,-0.2207 -0.01,-0.0365 -0.0195,-0.0729 -0.0293,-0.10938 -0.0168,-0.0638 -0.0337,-0.12764 -0.0508,-0.1914 m -10.49609,-18.18164 c -3.7731,-3.77626 -8.25373,-6.77153 -13.18555,-8.81446 -4.98655,-2.06592 -10.33492,-3.117 -15.73242,-3.09179 -14.439,0.0688 -27.75543,7.79976 -34.97461,20.30468 -1.7727,3.06996 -3.13489,6.35727 -4.0531,9.77764 m -0.0276,20.94688 c 0.0451,0.16957 0.0913,0.33885 0.13867,0.50782 l 0.008,0.0312 c 0.0465,0.16436 0.094,0.32843 0.14258,0.49219 0.0503,0.17156 0.10173,0.34279 0.15429,0.51367 0.15789,0.51174 0.3259,1.02031 0.50391,1.5254 0.0594,0.16836 0.11999,0.33633 0.18164,0.5039 0.0614,0.16773 0.1239,0.33505 0.1875,0.50195 0.19132,0.50068 0.39252,0.99752 0.60351,1.49024 0.63341,1.47832 1.35408,2.91771 2.15821,4.31055 10.18928,17.64889 31.88145,25.01218 50.70898,17.21289 4.93113,-2.04315 9.41108,-5.03841 13.1836,-8.81446"
       sodipodi:nodetypes="cccccccscccccccccsccccccscccccccccscsccccscccccscccccccccccccccsccccccccccccccccccccccscc" />
    <path
       id="rect29-7"
       style="fill:none;stroke:#000000;stroke-width:1.739;stroke-linecap:round;stroke-miterlimit:4;stroke-dasharray:none;stroke-dashoffset:0"
       d="m 476.43542,287.20984 -44.41299,25.64185 m -10.66432,-18.47115 44.41298,-25.64185"
       sodipodi:nodetypes="cccc" />
    <path
       id="rect29-8-9"
       style="fill:none;stroke:#000000;stroke-width:1.739;stroke-linecap:round;stroke-miterlimit:4;stroke-dasharray:none;stroke-dashoffset:0"
       d="m 465.6519,376.98528 -44.41298,-25.64185 m 10.66432,-18.47115 44.41299,25.64185"
       sodipodi:nodetypes="cccc" />
    <path
       id="path27-7"
       style="fill:none;stroke:#000000;stroke-width:0.670267;stroke-linecap:round;stroke-linejoin:round;stroke-miterlimit:4;stroke-dasharray:none"
       d="m 677.49821,402.37989 a 40.608002,40.608002 0 0 0 53.43478,3.5023 40.608002,40.608002 0 0 0 10.44697,-52.52049 40.608002,40.608002 0 0 0 -50.70757,-17.21291 40.608002,40.608002 0 0 0 -23.68431,48.02703" />
    <path
       id="rect29-80"
       style="fill:none;stroke:#000000;stroke-width:1.739;stroke-linecap:round;stroke-miterlimit:4;stroke-dasharray:none;stroke-dashoffset:0"
       d="m 677.65241,402.64697 -44.41299,25.64185 m -10.66432,-18.47115 44.41298,-25.64185"
       sodipodi:nodetypes="cccc" />
    <path
       id="path27-6-1"
       style="fill:none;stroke:#000000;stroke-width:0.670267;stroke-linecap:round;stroke-linejoin:round;stroke-miterlimit:4;stroke-dasharray:none"
       d="m 666.97736,492.87639 a 40.608002,40.608002 0 0 0 23.68431,48.02703 40.608002,40.608002 0 0 0 50.70757,-17.2129 40.608002,40.608002 0 0 0 -10.44697,-52.5205 40.608002,40.608002 0 0 0 -53.43478,3.5023" />
    <path
       id="rect29-8-2"
       style="fill:none;stroke:#000000;stroke-width:1.739;stroke-linecap:round;stroke-miterlimit:4;stroke-dasharray:none;stroke-dashoffset:0"
       d="m 666.82316,493.14347 -44.41298,-25.64185 m 10.66432,-18.47115 44.41299,25.64185"
       sodipodi:nodetypes="cccc" />
    <path
       id="path911-5"
       style="fill:none;stroke:#000000;stroke-width:1.739;stroke-miterlimit:4;stroke-dasharray:none;stroke-dashoffset:0"
       d="m 633.0682,449.04083 c 0.12624,-0.4679 0.2441,-0.93803 0.35351,-1.41015 0.0801,-0.34795 0.15565,-0.69694 0.22656,-1.04688 0.0357,-0.17555 0.0702,-0.35133 0.10352,-0.52734 0.0331,-0.17557 0.065,-0.35136 0.0957,-0.52735 0.0304,-0.17559 0.0597,-0.35137 0.0879,-0.52734 0.0285,-0.17625 0.0559,-0.35269 0.082,-0.5293 0.0266,-0.17691 0.052,-0.354 0.0762,-0.53125 0.0239,-0.17498 0.0467,-0.35011 0.0684,-0.52539 v -0.006 -0.006 c 0.0213,-0.17565 0.0415,-0.35143 0.0605,-0.52734 0.0187,-0.17371 0.0363,-0.34755 0.0527,-0.52149 l 0.002,-0.0117 0.002,-0.0117 c 0.0131,-0.14316 0.0255,-0.2864 0.0371,-0.42969 0.003,-0.0306 0.005,-0.0612 0.008,-0.0918 0.006,-0.0755 0.0119,-0.15102 0.0176,-0.22656 0.008,-0.10219 0.0147,-0.2044 0.0215,-0.30664 l 0.002,-0.0312 c 0.0115,-0.1679 0.0219,-0.33588 0.0312,-0.50391 0.01,-0.17833 0.0181,-0.35671 0.0254,-0.53515 0.006,-0.14125 0.0112,-0.28253 0.0156,-0.42383 10e-4,-0.0371 0.003,-0.0742 0.004,-0.11133 l 0.006,-0.22851 0.006,-0.3086 v -0.0215 c 0.005,-0.34959 0.006,-0.69923 0.002,-1.04883 -0.002,-0.1758 -0.005,-0.35158 -0.01,-0.52734 v -0.01 l -0.006,-0.22656 c -10e-4,-0.0352 -0.003,-0.0703 -0.004,-0.10547 -0.004,-0.13283 -0.008,-0.26565 -0.0137,-0.39844 l -0.002,-0.0332 c -0.004,-0.10223 -0.009,-0.20444 -0.0137,-0.30664 l -0.004,-0.0801 c -0.007,-0.12112 -0.0138,-0.24222 -0.0215,-0.36328 l -0.006,-0.0918 c -0.005,-0.0755 -0.0102,-0.15105 -0.0156,-0.22656 v -0.0117 c -0.0125,-0.17457 -0.0262,-0.34905 -0.041,-0.52344 -0.0122,-0.14981 -0.0252,-0.29955 -0.0391,-0.44922 -0.003,-0.028 -0.005,-0.056 -0.008,-0.084 -0.01,-0.10225 -0.0204,-0.20447 -0.0312,-0.30664 l -0.004,-0.0274 c -0.0137,-0.13288 -0.028,-0.26569 -0.043,-0.39843 -0.004,-0.0358 -0.008,-0.0716 -0.0117,-0.10742 -0.009,-0.0756 -0.018,-0.15107 -0.0274,-0.22657 -0.0126,-0.10161 -0.0257,-0.20317 -0.0391,-0.30468 l -0.002,-0.0195 c -0.0176,-0.13355 -0.0358,-0.26702 -0.0547,-0.40039 -0.005,-0.0371 -0.0104,-0.0742 -0.0156,-0.11132 -0.0109,-0.0749 -0.0219,-0.14977 -0.0332,-0.22461 -0.006,-0.0352 -0.0117,-0.0703 -0.0176,-0.10547 -0.0214,-0.14139 -0.0435,-0.28267 -0.0664,-0.42383 -0.0288,-0.17663 -0.0587,-0.35307 -0.0899,-0.5293 -0.0283,-0.16359 -0.0576,-0.327 -0.0879,-0.49023 l -0.008,-0.0371 c -0.0191,-0.10033 -0.0387,-0.20059 -0.0586,-0.30078 -0.0148,-0.0749 -0.0297,-0.14978 -0.0449,-0.22461 -0.008,-0.0404 -0.0169,-0.0808 -0.0254,-0.1211 -0.0261,-0.12578 -0.0528,-0.25143 -0.0801,-0.37695 l -0.006,-0.0254 c -0.0218,-0.10034 -0.0439,-0.2006 -0.0664,-0.30078 -0.0167,-0.0743 -0.0336,-0.14849 -0.0508,-0.22266 -0.01,-0.041 -0.0195,-0.082 -0.0293,-0.12304 -0.0275,-0.11731 -0.0555,-0.23451 -0.084,-0.35157 l -0.0117,-0.0469 c -0.0244,-0.0997 -0.0491,-0.19931 -0.0742,-0.29883 -0.0187,-0.0736 -0.0375,-0.14719 -0.0566,-0.2207 -0.01,-0.0365 -0.0195,-0.0729 -0.0293,-0.10938 -0.0168,-0.0638 -0.0337,-0.12764 -0.0508,-0.1914 M 622.5751,409.81767 c -3.7731,-3.77626 -8.25373,-6.77153 -13.18555,-8.81446 -4.98655,-2.06592 -10.33492,-3.117 -15.73242,-3.09179 -10.83902,0.0516 -21.04545,4.42103 -28.51492,11.88641 m -10.58169,18.45599 c -0.0815,0.31189 -0.15935,0.62486 -0.23347,0.93885 -0.3286,1.39118 -0.58351,2.79873 -0.76367,4.21679 -0.0403,0.32052 -0.0767,0.6415 -0.10937,0.96289 -0.006,0.0553 -0.0118,0.11067 -0.0176,0.16602 l -0.006,0.0566 c -0.0131,0.13796 -0.0254,0.27598 -0.0371,0.41406 -0.0155,0.17764 -0.0298,0.35537 -0.043,0.5332 -0.0129,0.17831 -0.0246,0.3567 -0.0352,0.53516 -0.009,0.14839 -0.0164,0.29683 -0.0234,0.44531 -0.003,0.0397 -0.005,0.0794 -0.008,0.11914 -0.005,0.12173 -0.01,0.24347 -0.0137,0.36524 -0.003,0.0703 -0.005,0.14062 -0.008,0.21094 -10e-4,0.0501 -0.003,0.10026 -0.004,0.15039 -0.004,0.13214 -0.007,0.2643 -0.01,0.39648 l -0.002,0.041 c -0.002,0.13736 -0.003,0.27473 -0.004,0.41211 -0.001,0.11002 -0.002,0.22004 -0.002,0.33007 2.1e-4,0.10938 8.6e-4,0.21876 0.002,0.32813 10e-4,0.14324 0.003,0.28647 0.006,0.42969 0.003,0.14455 0.007,0.28908 0.0117,0.43359 10e-4,0.043 0.003,0.0859 0.004,0.12891 0.002,0.0768 0.005,0.15365 0.008,0.23047 0.004,0.11069 0.009,0.22137 0.0137,0.33203 l 0.002,0.0527 c 0.007,0.13806 0.0149,0.27608 0.0234,0.41406 0.0106,0.17781 0.0223,0.35555 0.0352,0.53321 0.008,0.11201 0.0165,0.22399 0.0254,0.33593 0.009,0.10681 0.0178,0.21358 0.0274,0.32032 0.0128,0.15177 0.0265,0.30346 0.041,0.45507 0.0137,0.13028 0.028,0.26049 0.043,0.39063 0.005,0.0488 0.0103,0.0977 0.0156,0.14648 0.009,0.0768 0.018,0.15367 0.0273,0.23047 0.0132,0.11269 0.0269,0.22532 0.041,0.33789 0.006,0.0488 0.0129,0.0977 0.0195,0.14649 0.0127,0.10031 0.0257,0.20057 0.0391,0.30078 0.006,0.0404 0.0117,0.0807 0.0176,0.12109 0.0249,0.1766 0.0509,0.35304 0.0781,0.5293 0.0227,0.14466 0.0461,0.28919 0.0703,0.43359 0.0115,0.0697 0.0233,0.13936 0.0351,0.20899 0.024,0.1388 0.0488,0.27747 0.0742,0.41601 0.0637,0.35115 0.13211,0.70144 0.20508,1.05078 0.0366,0.17473 0.0744,0.34921 0.11328,0.52344 0.0392,0.17409 0.0796,0.34793 0.12109,0.52149 0.0412,0.1741 0.0835,0.34793 0.12696,0.52148 0.0438,0.17347 0.0887,0.34665 0.13476,0.51953 0.0451,0.16957 0.0913,0.33885 0.13867,0.50782 l 0.008,0.0312 c 0.0465,0.16436 0.094,0.32843 0.14258,0.49219 0.0503,0.17156 0.10173,0.34279 0.15429,0.51367 0.15789,0.51174 0.3259,1.02031 0.50391,1.5254 0.0594,0.16836 0.11999,0.33633 0.18164,0.5039 0.0614,0.16773 0.1239,0.33505 0.1875,0.50195 0.19132,0.50068 0.39252,0.99752 0.60351,1.49024 0.63341,1.47832 1.35408,2.91771 2.15821,4.31055 10.18928,17.64889 31.88145,25.01218 50.70898,17.21289 4.93113,-2.04315 9.41108,-5.03841 13.1836,-8.81446"
       sodipodi:nodetypes="cccccccscccccccccsccccccscccccccccscsccccscccccscccccccccccccccsccccccccccccccccsccccccccccccccccssccccccccccccccccccccccsccccccccscc" />
    <path
       id="rect29-7-1"
       style="fill:none;stroke:#000000;stroke-width:1.739;stroke-linecap:round;stroke-miterlimit:4;stroke-dasharray:none;stroke-dashoffset:0"
       d="m 520.8484,261.56799 -44.41299,25.64185 m -10.66432,-18.47115 44.41298,-25.64185"
       sodipodi:nodetypes="cccc" />
    <path
       id="rect29-8-9-3"
       style="fill:none;stroke:#000000;stroke-width:1.739;stroke-linecap:round;stroke-miterlimit:4;stroke-dasharray:none;stroke-dashoffset:0"
       d="m 510.06489,402.62713 -44.41298,-25.64185 m 10.66432,-18.47115 44.41299,25.64185"
       sodipodi:nodetypes="cccc" />
    <path
       id="rect29-8-9-4"
       style="fill:none;stroke:#000000;stroke-width:1.739;stroke-linecap:round;stroke-miterlimit:4;stroke-dasharray:none;stroke-dashoffset:0"
       d="M 554.47788,428.26898 510.0649,402.62713 m 10.66432,-18.47115 44.41299,25.64185"
       sodipodi:nodetypes="cccc" />
    <path
       id="rect29-7-1-9"
       style="fill:none;stroke:#000000;stroke-width:1.739;stroke-linecap:round;stroke-miterlimit:4;stroke-dasharray:none;stroke-dashoffset:0"
       d="m 565.26138,235.92614 -44.41299,25.64185 m -10.66432,-18.47115 44.41298,-25.64185"
       sodipodi:nodetypes="cccc" />
    <path
       id="rect29-1-1"
       style="fill:none;stroke:#000000;stroke-width:1.739;stroke-linecap:round;stroke-miterlimit:4;stroke-dasharray:none;stroke-dashoffset:0"
       d="m 353.29567,333.44985 h -51.2837 m 10e-6,-21.32864 51.28369,-1e-5"
       sodipodi:nodetypes="cccc" />
  </g>
</svg>
